<svg width="81" height="61" viewBox="0 0 81 61" fill="none" xmlns="http://www.w3.org/2000/svg">
<path d="M39.3002 19.0212C39.0636 19.9899 38.6715 20.8775 38.1216 21.6851C37.5717 22.4928 36.8196 23.1849 35.8653 23.7625C34.2223 24.7557 32.2704 25.1345 30.3952 25.4022C29.2232 25.57 28.0645 25.6311 26.8836 25.6811C26.2682 25.7066 25.6772 25.69 25.1384 25.6944L25.1328 26.7031C25.6038 26.7076 26.0571 26.712 26.4881 26.7164C26.9391 26.7209 27.4124 26.7375 27.9101 26.7642C28.4067 26.792 28.9932 26.832 29.6698 26.8831C30.9784 26.9875 32.1149 27.2363 33.0825 27.6285C34.049 28.0229 34.9577 28.6072 35.8075 29.3837C36.7474 30.2514 37.5472 31.49 38.2082 33.0997C38.8692 34.7094 39.3724 36.2391 39.7202 37.6867L40.5322 37.6944L40.7522 15.8862L39.9401 15.8784C39.7479 17.006 39.5335 18.0536 39.2991 19.0212H39.3002Z" fill="#0A0A0A"/>
<path d="M46.4226 13.1643C46.4226 13.1566 47.0791 13.2832 47.0902 13.2943C46.968 9.59832 46.8358 5.63015 46.7136 1.93416C46.7136 1.98304 24.7277 1.92749 24.7265 1.93416C24.7243 1.94193 24.6643 3.74272 24.6621 3.74938C27.7071 3.52609 34.417 3.53164 39.2817 3.9238C40.7447 4.04155 42.3522 4.2093 43.6342 5.0347C45.1195 5.99009 45.7138 7.69977 45.9393 9.37836C46.1304 10.8003 46.4226 13.1532 46.4226 13.1654V13.1643Z" fill="#0A0A0A"/>
<path d="M32.0775 46.5982C30.44 45.525 28.7425 43.8065 26.9873 41.4424C25.8475 39.8983 24.5533 38.1253 23.1058 36.1234C21.6561 34.1238 20.3152 32.2597 19.0799 30.5311C18.3678 29.5768 17.6346 28.7159 16.8814 27.946C16.1271 27.1773 15.3539 26.5929 14.5618 26.1941L14.5573 25.9864C16.0693 25.4476 17.509 24.7955 18.8777 24.029C20.2463 23.2635 21.4383 22.3493 22.4548 21.2906C23.4713 20.2308 24.2767 19.0154 24.871 17.6412C25.4654 16.2681 25.7453 14.7284 25.7098 13.021C25.6531 10.2537 24.9821 7.97188 23.7001 6.17554C22.417 4.3792 20.7496 2.97279 18.6988 1.95298C16.6925 0.934276 14.4896 0.188857 12.0867 0.063324C9.90375 -0.0499887 0.00777636 0.0233313 0 0.0233313L0.02444 1.39308C0.301056 1.35642 0.634329 1.31865 1.03537 1.27977C1.63304 1.222 2.41734 1.18201 3.38605 1.16201C4.72358 1.13424 6.00557 1.22311 7.23313 1.42863C8.45957 1.63526 9.63269 1.97964 10.7492 2.464C12.9854 3.48048 14.6973 4.87467 15.8882 6.64879C17.078 8.42402 17.6979 10.4648 17.7445 12.771C17.7701 14.0163 17.6323 15.2194 17.3346 16.3792C17.0358 17.539 16.5614 18.6222 15.9138 19.6275C15.265 20.634 14.4185 21.5394 13.3742 22.3448C12.3289 23.1513 11.0735 23.8001 9.60714 24.2911C8.09519 24.831 6.52214 25.1976 4.888 25.392C3.52491 25.5553 2.0674 25.6609 0.52546 25.7142L0.545456 26.6774C0.793189 26.6829 1.01648 26.6829 1.212 26.6796C1.67303 26.6696 2.34291 26.7496 3.22386 26.9151C4.42697 27.1217 5.5812 27.6738 6.68434 28.5737C7.78636 29.4746 8.81062 30.4456 9.75489 31.4865C10.888 32.7551 11.8689 33.9005 12.6977 34.9214C13.5253 35.9423 14.2974 36.9544 15.0095 37.9542C15.7227 38.9551 16.4237 39.9672 17.1135 40.9903C17.8034 42.0146 18.5999 43.1632 19.5031 44.4363C20.2619 45.4828 20.8206 46.2671 21.1784 46.7892C21.535 47.3125 21.8316 47.7102 22.0682 47.9824C22.3048 48.2545 23.198 49.381 23.6213 49.7876L37.8264 49.7632L37.7898 48.8033C35.6146 48.5256 33.7116 47.6735 32.0753 46.5993L32.0775 46.5982Z" fill="#0A0A0A"/>
<path d="M78.2888 48.3233C77.1435 47.7934 76.1203 46.9368 75.3293 45.9437C73.9529 44.2151 73.1575 42.1077 72.3843 40.0381C67.3986 26.6983 62.4128 13.3574 57.427 0.0165062C56.8694 -0.00571196 56.4939 0.557519 56.2006 1.03299C54.9564 3.04595 53.0978 4.67344 50.9382 5.64215C53.6344 12.2765 56.4217 19.0653 59.1167 25.6985C59.129 25.7107 45.2493 25.7063 45.237 25.6952C45.237 25.694 44.8516 26.6916 44.8516 26.6905C44.856 26.6905 59.4689 26.7072 59.4689 26.7072C61.6007 32.3495 63.8148 38.2584 65.6367 44.0085C65.8477 44.6761 66.0577 45.3705 65.9677 46.0637C65.8377 47.0668 65.0768 47.9111 64.1658 48.3532C63.256 48.7954 62.2128 48.8321 61.2019 48.8009C61.2086 49.0953 61.2164 49.4753 61.2241 49.7697C67.8163 49.7697 74.4073 49.7697 80.9994 49.7697C80.9972 49.4853 80.9805 49.082 80.9772 48.7976C80.0374 48.842 79.1375 48.7176 78.2888 48.3255V48.3233Z" fill="#0A0A0A"/>
<path d="M26.4093 59.997C25.6116 59.997 24.9284 59.8015 24.3608 59.4094C24.0497 59.1994 23.812 58.955 23.6453 58.6739C23.4798 58.394 23.3965 58.104 23.3965 57.8074H24.4918C24.4918 57.923 24.5363 58.0407 24.624 58.1618C24.7118 58.284 24.8307 58.3984 24.9784 58.5062C25.1539 58.6284 25.3639 58.7228 25.6072 58.7906C25.8505 58.8584 26.1138 58.8917 26.3982 58.8917C26.7425 58.8917 27.078 58.8439 27.4024 58.7495C27.6457 58.6817 27.8335 58.5817 27.9657 58.4507C28.0979 58.3196 28.1634 58.1785 28.1634 58.0296C28.1634 57.8408 28.0623 57.6697 27.859 57.5175C27.6557 57.3653 27.3691 57.2586 26.9969 57.1975C26.3004 57.0898 25.7783 56.9987 25.4306 56.9243C25.0828 56.8498 24.8073 56.7621 24.604 56.661C24.4007 56.5599 24.2186 56.421 24.0564 56.2455C23.772 55.9344 23.6309 55.5867 23.6309 55.2012C23.6309 54.9035 23.7175 54.6213 23.8897 54.3547C24.0619 54.0881 24.3041 53.8726 24.6152 53.7104C24.8651 53.5749 25.1428 53.4727 25.4461 53.4016C25.7505 53.3305 26.0582 53.2949 26.3693 53.2949C26.7137 53.2949 27.0525 53.336 27.3835 53.4171C27.7146 53.4982 28.0156 53.6171 28.2856 53.7715C28.61 53.9604 28.8588 54.1936 29.031 54.4714C29.2032 54.7491 29.2899 55.0557 29.2899 55.3945H28.1945C28.1945 55.2657 28.1556 55.149 28.0779 55.0446C28.0001 54.9402 27.8834 54.8302 27.7279 54.7147C27.3969 54.458 26.9603 54.3292 26.4204 54.3292C26.136 54.3292 25.8605 54.3658 25.5939 54.4403C25.3272 54.5147 25.1117 54.618 24.9495 54.7491C24.7873 54.8802 24.7062 55.0213 24.7062 55.1701C24.7062 55.2857 24.7607 55.4001 24.8684 55.5145C24.9629 55.6156 25.0862 55.6956 25.2384 55.7523C25.3906 55.81 25.6039 55.8633 25.8771 55.9144C26.1504 55.9655 26.5781 56.0311 27.1602 56.1122C27.6268 56.1733 28.029 56.2999 28.3667 56.4921C28.7044 56.6843 28.9599 56.9143 29.1321 57.182C29.3043 57.4497 29.3909 57.7286 29.3909 58.0185C29.3909 58.384 29.2554 58.725 28.9855 59.0428C28.7155 59.3605 28.32 59.6038 27.799 59.7726C27.3324 59.9215 26.8692 59.9959 26.4104 59.9959L26.4093 59.997Z" fill="#0A0A0A"/>
<path d="M32.2915 53.5378V56.6106L35.5165 53.5378H37.1084L33.9045 56.5795L37.3928 59.9156H35.8009L33.1136 57.3405L32.2926 58.1215V59.9167H31.1973V53.539H32.2926L32.2915 53.5378Z" fill="#0A0A0A"/>
<path d="M40.2106 53.5378V59.9156H39.1152V53.5378H40.2106Z" fill="#0A0A0A"/>
<path d="M43.191 53.5378L47.4291 58.2525V53.5378H48.5244V59.9156H47.4602L43.2321 55.2109V59.9156H42.1367V53.5378H43.191Z" fill="#0A0A0A"/>
<path d="M52.0048 59.5716C51.4371 59.2738 50.9861 58.8739 50.6506 58.3696C50.3162 57.8663 50.1484 57.3164 50.1484 56.7221C50.1484 56.1278 50.3162 55.5779 50.6506 55.0746C50.985 54.5714 51.436 54.1703 52.0048 53.8726C52.5724 53.5749 53.1912 53.426 53.86 53.426C54.5288 53.426 55.1009 53.5627 55.6552 53.8371C56.2096 54.1103 56.655 54.4881 56.9939 54.968L56.1018 55.5967C55.8652 55.259 55.5475 54.9946 55.1486 54.8058C54.7498 54.6169 54.321 54.5214 53.8611 54.5214C53.4012 54.5214 52.9513 54.6214 52.5524 54.8202C52.1536 55.0202 51.8381 55.2868 51.6048 55.6212C51.3715 55.9556 51.2549 56.3222 51.2549 56.721C51.2549 57.1198 51.3715 57.4886 51.6048 57.8263C51.8381 58.1641 52.1536 58.4318 52.5524 58.6273C52.9513 58.8239 53.3867 58.9217 53.8611 58.9217C54.3354 58.9217 54.7498 58.8273 55.1486 58.6373C55.5475 58.4484 55.8652 58.184 56.1018 57.8463L56.9939 58.4851C56.6561 58.965 56.2084 59.3405 55.6508 59.6105C55.0931 59.8804 54.4965 60.0159 53.8611 60.0159C53.1923 60.0159 52.5736 59.8671 52.0059 59.5693L52.0048 59.5716Z" fill="#0A0A0A"/>
<path d="M62.357 53.5378L65.4598 59.9156H64.2433L63.5235 58.4347H59.9441L59.2243 59.9156H58.0078L61.1106 53.5378H62.3581H62.357ZM61.7283 54.7543L60.4807 57.3405H62.9847L61.7271 54.7543H61.7283Z" fill="#0A0A0A"/>
<path d="M70.6319 53.5378C71.044 53.5378 71.4228 53.6212 71.7672 53.7867C72.1116 53.9522 72.386 54.1788 72.5882 54.4666C72.7915 54.7543 72.8926 55.0665 72.8926 55.4042C72.8926 55.7019 72.8115 55.9807 72.6493 56.2407C72.4871 56.5006 72.266 56.7173 71.9849 56.8895C71.7039 57.0616 71.3917 57.175 71.0473 57.2294L73.4713 59.9167H72.0005L69.5976 57.2594H68.2789V59.9167H67.1836V53.539H70.6319V53.5378ZM71.4528 55.9407C71.6828 55.7919 71.7972 55.613 71.7972 55.4031C71.7972 55.1931 71.6817 55.0131 71.4528 54.8609C71.2229 54.7087 70.9496 54.6332 70.6319 54.6332H68.2789V56.164H70.6319C70.9496 56.164 71.2229 56.0896 71.4528 55.9407Z" fill="#0A0A0A"/>
<path d="M80.9515 53.5378V54.6332H76.2868V56.164H80.7082V57.2594H76.2868V58.8213H80.9515V59.9167H75.1914V53.539H80.9515V53.5378Z" fill="#0A0A0A"/>
</svg>
